<?xml version="1.0" encoding="utf-8"?>
<svg xmlns="http://www.w3.org/2000/svg" xmlns:svg="http://www.w3.org/2000/svg" version="1.1" viewBox="0 0 1400 440">
	<title>The titlepage for the Standard Ebooks edition of The Count of Monte Cristo, by Alexandre Dumas</title>
	<g aria-label="THE COUNT">
		<path d="m 403.42763,68.245613 h 18.33918 V 130 h 17.59064 V 68.245613 h 18.33918 V 52.807016 h -54.269 z"/>
		<path d="m 486.62207,99.029239 h 24.88889 V 130 H 529.1016 V 52.807016 H 511.51096 V 83.590642 H 486.62207 V 52.807016 H 469.03143 V 130 h 17.59064 z"/>
		<path d="M 589.46711,52.807016 H 545.30336 V 130 h 44.16375 v -15.4386 h -26.5731 V 99.029239 H 588.3443 V 83.590642 H 562.89401 V 68.245613 h 26.5731 z"/>
		<path d="m 673.31652,114.09357 c -17.68421,0 -25.45029,-12.35088 -25.45029,-22.736846 0,-10.292397 7.76608,-22.643275 25.45029,-22.643275 8.98246,0 15.1579,4.77193 15.1579,4.77193 l 7.48538,-14.97076 c 0,0 -8.60819,-7.111112 -25.35673,-7.111112 -21.89474,0 -41.82456,17.964913 -41.82456,40.140352 0,22.081871 20.02339,39.859651 41.82456,39.859651 16.74854,0 25.35673,-7.11111 25.35673,-7.11111 l -7.48538,-14.97076 c 0,0 -6.17544,4.77193 -15.1579,4.77193 z"/>
		<path d="m 704.31945,91.356724 c 0,22.549706 16.09356,40.046786 38.92397,40.046786 22.17544,0 38.83041,-17.49708 38.83041,-40.046786 0,-22.549708 -17.4035,-39.953217 -38.83041,-39.953217 -21.23976,0 -38.92397,17.403509 -38.92397,39.953217 z m 18.99415,0 c 0,-11.508772 6.36257,-23.017544 19.92982,-23.017544 13.66082,0 19.83626,11.508772 19.83626,23.017544 0,11.508776 -5.80117,23.017546 -19.83626,23.017546 -14.40935,0 -19.92982,-11.50877 -19.92982,-23.017546 z"/>
		<path d="m 854.15718,52.807016 h -17.59064 v 44.63158 c 0,12.912284 -3.92983,16.654974 -12.53801,16.654974 -8.60819,0 -12.53802,-3.74269 -12.53802,-16.654974 v -44.63158 h -17.59064 v 49.777774 c 0,19.08772 10.47953,28.81872 30.12866,28.81872 19.64912,0 30.12865,-9.731 30.12865,-28.81872 z"/>
		<path d="m 887.05338,82.093566 h 0.18714 L 917.93058,130 h 17.59064 V 52.807016 h -17.59064 v 47.906434 h -0.18714 L 887.05338,52.807016 H 869.46274 V 130 h 17.59064 z"/>
		<path d="m 942.33113,68.245613 h 18.33918 V 130 h 17.59065 V 68.245613 h 18.33918 V 52.807016 h -54.26901 z"/>
	</g>
	<g aria-label="OF MONTE CRISTO">
		<path d="m 219.96637,191.35672 c 0,22.54971 16.09356,40.04679 38.92397,40.04679 22.17544,0 38.83041,-17.49708 38.83041,-40.04679 0,-22.5497 -17.40351,-39.95321 -38.83041,-39.95321 -21.23976,0 -38.92397,17.40351 -38.92397,39.95321 z m 18.99415,0 c 0,-11.50877 6.36257,-23.01754 19.92982,-23.01754 13.66082,0 19.83626,11.50877 19.83626,23.01754 0,11.50878 -5.80117,23.01755 -19.83626,23.01755 -14.40935,0 -19.92982,-11.50877 -19.92982,-23.01755 z"/>
		<path d="M 355.11403,152.80702 H 310.48245 V 230 h 17.59064 v -30.97076 h 24.98246 v -15.4386 h -24.98246 v -15.34503 h 27.04094 z"/>
		<path d="m 462.87719,230 h 17.59065 l -6.92398,-77.19298 H 454.83041 L 437.7076,197.34503 420.58479,152.80702 H 401.87134 L 394.94737,230 h 17.59064 l 3.64912,-45.75439 h 0.46784 l 15.81287,45.28655 h 10.47953 l 15.81286,-45.28655 h 0.46784 z"/>
		<path d="m 489.05264,191.35672 c 0,22.54971 16.09357,40.04679 38.92398,40.04679 22.17544,0 38.83041,-17.49708 38.83041,-40.04679 0,-22.5497 -17.40351,-39.95321 -38.83041,-39.95321 -21.23977,0 -38.92398,17.40351 -38.92398,39.95321 z m 18.99415,0 c 0,-11.50877 6.36258,-23.01754 19.92983,-23.01754 13.66082,0 19.83625,11.50877 19.83625,23.01754 0,11.50878 -5.80117,23.01755 -19.83625,23.01755 -14.40936,0 -19.92983,-11.50877 -19.92983,-23.01755 z"/>
		<path d="m 597.15935,182.09357 h 0.18713 L 628.03654,230 h 17.59065 v -77.19298 h -17.59065 v 47.90643 h -0.18713 L 597.15935,152.80702 H 579.56871 V 230 h 17.59064 z"/>
		<path d="m 652.43713,168.24561 h 18.33918 V 230 h 17.59064 v -61.75439 h 18.33918 v -15.43859 h -54.269 z"/>
		<path d="M 762.20468,152.80702 H 718.04093 V 230 h 44.16375 v -15.4386 h -26.5731 v -15.53216 h 25.45029 v -15.4386 h -25.45029 v -15.34503 h 26.5731 z"/>
		<path d="m 846.05406,214.09357 c -17.68421,0 -25.45029,-12.35088 -25.45029,-22.73685 0,-10.29239 7.76608,-22.64327 25.45029,-22.64327 8.98246,0 15.1579,4.77193 15.1579,4.77193 l 7.48538,-14.97076 c 0,0 -8.60819,-7.11111 -25.35673,-7.11111 -21.89474,0 -41.82456,17.96491 -41.82456,40.14035 0,22.08187 20.02339,39.85965 41.82456,39.85965 16.74854,0 25.35673,-7.11111 25.35673,-7.11111 l -7.48538,-14.97076 c 0,0 -6.17544,4.77193 -15.1579,4.77193 z"/>
		<path d="M 880.51899,152.80702 V 230 h 17.59065 V 199.49708 L 921.68858,230 h 22.36258 l -26.5731,-31.90643 c 9.45029,-2.99416 15.81286,-10.76024 15.81286,-22.36258 0,-15.15789 -10.8538,-22.92397 -25.16959,-22.92397 z m 17.59065,34.24561 V 166.8421 h 2.05848 c 6.64327,0 14.59649,0.46784 14.59649,10.10527 0,9.63742 -7.95322,10.10526 -14.59649,10.10526 z"/>
		<path d="M 970.17836,152.80702 H 952.58772 V 230 h 17.59064 z"/>
		<path d="m 1013.079,151.40351 c -12.4445,0 -25.16961,9.16959 -25.16961,23.57895 0,8.04678 5.4269,15.25146 14.69001,19.83625 9.1696,4.5848 17.4036,7.11111 17.4036,12.72515 0,7.20468 -7.2983,7.57895 -11.1345,7.57895 -8.6082,0 -18.90064,-8.70176 -18.90064,-8.70176 l -8.79532,14.78363 c 0,0 10.94737,10.19883 29.00586,10.19883 15.0643,0 29.0994,-6.45614 29.0994,-24.88889 0,-10.10526 -9.4503,-17.40351 -18.0585,-21.05263 -8.7953,-3.74269 -16.0935,-6.83041 -16.0935,-11.13451 0,-4.21052 3.1812,-6.92397 9.1696,-6.92397 7.9532,0 15.6257,5.33333 15.6257,5.33333 l 7.1111,-14.03509 c 0,0 -9.9181,-7.29824 -23.9532,-7.29824 z"/>
		<path d="m 1043.0658,168.24561 h 18.3392 V 230 h 17.5906 v -61.75439 h 18.3392 v -15.43859 h -54.269 z"/>
		<path d="m 1102.2836,191.35672 c 0,22.54971 16.0936,40.04679 38.924,40.04679 22.1754,0 38.8304,-17.49708 38.8304,-40.04679 0,-22.5497 -17.4035,-39.95321 -38.8304,-39.95321 -21.2398,0 -38.924,17.40351 -38.924,39.95321 z m 18.9942,0 c 0,-11.50877 6.3626,-23.01754 19.9298,-23.01754 13.6608,0 19.8363,11.50877 19.8363,23.01754 0,11.50878 -5.8012,23.01755 -19.8363,23.01755 -14.4094,0 -19.9298,-11.50877 -19.9298,-23.01755 z"/>
	</g>
	<g aria-label="ALEXANDRE DUMAS">
		<path d="M 329.91886,332.10526 H 317.70834 L 294.33992,390 h 14.17543 l 4.28071,-11.57895 h 22.03508 L 339.11185,390 h 14.17543 z m 0.42106,34.73685 H 317.28728 L 323.74342,350 h 0.14036 z"/>
		<path d="M 373.66996,332.10526 H 360.47698 V 390 h 33.12281 v -11.57895 h -19.92983 z"/>
		<path d="m 438.21053,332.10526 h -33.1228 V 390 h 33.1228 v -11.57895 h -19.92982 v -11.64912 h 19.08772 v -11.57895 h -19.08772 v -11.50877 h 19.92982 z"/>
		<path d="m 504.97039,390 -22.59649,-31.15789 18.94737,-26.73685 h -16.42105 l -10.66667,15.78948 -10.66666,-15.78948 h -15.7193 L 466.0932,358.84211 444.19847,390 h 16.35087 L 474.23355,370.2807 487.91776,390 Z"/>
		<path d="M 541.25659,332.10526 H 529.04606 L 505.67764,390 h 14.17544 l 4.2807,-11.57895 h 22.03509 L 550.44957,390 h 14.17544 z m 0.42105,34.73685 H 528.62501 L 535.08115,350 h 0.14035 z"/>
		<path d="m 585.00768,354.07018 h 0.14035 L 608.16558,390 h 13.19298 v -57.89474 h -13.19298 v 35.92983 h -0.14035 L 585.00768,332.10526 H 571.8147 V 390 h 13.19298 z"/>
		<path d="M 634.79166,332.10526 V 390 h 16.77193 c 15.92982,0 29.19298,-12.07018 29.19298,-28.98246 0,-16.8421 -13.33333,-28.91228 -29.19298,-28.91228 z m 13.19298,46.10527 v -34.31579 h 2.03509 c 9.82456,0 16.49123,7.50877 16.49123,17.19298 -0.0702,9.68421 -6.73684,17.12281 -16.49123,17.12281 z"/>
		<path d="M 691.6009,332.10526 V 390 h 13.19298 V 367.12281 L 722.47809,390 h 16.77193 l -19.92983,-23.92982 c 7.08772,-2.24562 11.85965,-8.07018 11.85965,-16.77193 0,-11.36842 -8.14035,-17.19299 -18.87719,-17.19299 z m 13.19298,25.68421 v -15.15789 h 1.54386 c 4.98245,0 10.94737,0.35088 10.94737,7.57895 0,7.22807 -5.96492,7.57894 -10.94737,7.57894 z"/>
		<path d="M 780.02522,332.10526 H 746.90241 V 390 h 33.12281 v -11.57895 h -19.92983 v -11.64912 h 19.08772 v -11.57895 h -19.08772 v -11.50877 h 19.92983 z"/>
		<path d="M 816.79825,332.10526 V 390 h 16.77193 c 15.92983,0 29.19298,-12.07018 29.19298,-28.98246 0,-16.8421 -13.33333,-28.91228 -29.19298,-28.91228 z m 13.19298,46.10527 v -34.31579 h 2.03509 c 9.82456,0 16.49123,7.50877 16.49123,17.19298 -0.0702,9.68421 -6.73684,17.12281 -16.49123,17.12281 z"/>
		<path d="M 918.09868,332.10526 H 904.9057 v 33.47369 c 0,9.68421 -2.94737,12.49123 -9.40351,12.49123 -6.45614,0 -9.40351,-2.80702 -9.40351,-12.49123 V 332.10526 H 872.9057 v 37.33334 c 0,14.31579 7.85965,21.61403 22.59649,21.61403 14.73685,0 22.59649,-7.29824 22.59649,-21.61403 z"/>
		<path d="m 978.6875,390 h 13.19299 l -5.19299,-57.89474 h -14.03508 l -12.84211,33.40351 -12.8421,-33.40351 H 932.93312 L 927.74014,390 h 13.19298 l 2.73684,-34.31579 h 0.35088 l 11.85965,33.96491 h 7.85964 l 11.85965,-33.96491 h 0.35088 z"/>
		<path d="m 1031.5691,332.10526 h -12.2106 L 995.99012,390 h 14.17548 l 4.2807,-11.57895 h 22.0351 L 1040.7621,390 h 14.1754 z m 0.421,34.73685 h -13.0526 L 1025.3936,350 h 0.1404 z"/>
		<path d="m 1082.0899,331.05263 c -9.3333,0 -18.8772,6.8772 -18.8772,17.68421 0,6.03509 4.0702,11.4386 11.0175,14.8772 6.8772,3.43859 13.0527,5.33333 13.0527,9.54385 0,5.40351 -5.4737,5.68422 -8.3509,5.68422 -6.4561,0 -14.1754,-6.52632 -14.1754,-6.52632 l -6.5965,11.08772 c 0,0 8.2105,7.64912 21.7544,7.64912 11.2982,0 21.8245,-4.8421 21.8245,-18.66666 0,-7.57895 -7.0877,-13.05264 -13.5438,-15.78948 -6.5965,-2.80702 -12.0702,-5.12281 -12.0702,-8.35088 0,-3.15789 2.386,-5.19298 6.8772,-5.19298 5.9649,0 11.7193,4 11.7193,4 l 5.3333,-10.52631 c 0,0 -7.4386,-5.47369 -17.9649,-5.47369 z"/>
	</g>
</svg>
